<?xml version="1.0" encoding="UTF-8"?>
<svg id="Layer_2" data-name="Layer 2" xmlns="http://www.w3.org/2000/svg" viewBox="0 0 32.96 26.31">
  <defs>
    <style>
      .cls-1 {
        fill: none;
        stroke: #878787;
        stroke-linecap: round;
        stroke-miterlimit: 10;
        stroke-width: 2.5px;
      }
    </style>
  </defs>
  <g id="Attributes">
    <path class="cls-1" d="m29.07,17.74c.33.37.33.93,0,1.3-3.21,3.66-7.8,5.76-12.59,5.76s-9.38-2.1-12.59-5.76c-.33-.37-.33-.93,0-1.3,3.09-3.52,7.45-5.59,12.05-5.74.18-.02.36-.03.54-.03s.36.01.54.03c4.59.15,8.96,2.22,12.05,5.74Zm-18.84.64c-.11,8.12,12.62,8.12,12.51,0,.09-8.12-12.6-8.12-12.51,0Zm5.19,0c0,.59.48,1.07,1.07,1.07s1.07-.48,1.07-1.07-.48-1.07-1.07-1.07-1.07.48-1.07,1.07Zm1.07-11.92V1.5m-6.27,6.07l-1.7-4.67m-3.82,7.85l-3.19-3.81m21.25.62l1.7-4.67m3.82,7.85l3.19-3.81"/>
  </g>
</svg>