<?xml version="1.0" encoding="UTF-8"?>
<svg id="Layer_2" data-name="Layer 2" xmlns="http://www.w3.org/2000/svg" viewBox="0 0 32.96 28.01">
  <defs>
    <style>
      .cls-1 {
        fill: none;
        stroke: #878787;
        stroke-linecap: round;
        stroke-miterlimit: 10;
        stroke-width: 2.5px;
      }
    </style>
  </defs>
  <g id="Attributes">
    <path class="cls-1" d="m31.46,2.03c-.66.91-1.19,1.92-1.81,2.86-1.27,1.92-2.61,3.8-3.89,5.72-1.08,1.62-2.32,3.16-2.3,5.19.02,1.42.4,2.88.7,4.26.15.7.26,1.56.7,2.16.77,1.06,2.07,1.17,2.97,2.01.39.36.36,1.06.12,1.49-.28.52-.79.65-1.33.71-1.08.12-2.25.1-3.33,0-.68-.06-1.42-.14-2.04-.44-2.59-1.27-3.2-4.86-4.56-7.16-.66-1.1-2.06-1.78-2.25-3.09-.05-.36-.07-.69-.03-1.05.27-2.06,2.38-2.16,3.47-3.56,1.44-1.85,2.36-4.2,3.23-6.36.42-1.04.98-2.15,1.14-3.27M6.2,9.61h5.08M1.5,14.57h6.94m-5.98,4.96h7.59"/>
  </g>
</svg>