<?xml version="1.0" encoding="UTF-8"?>
<svg id="Layer_2" data-name="Layer 2" xmlns="http://www.w3.org/2000/svg" viewBox="0 0 32.96 30.51">
  <defs>
    <style>
      .cls-1 {
        fill: none;
        stroke: #878787;
        stroke-linecap: round;
        stroke-miterlimit: 333.33;
        stroke-width: 2.5px;
      }
    </style>
  </defs>
  <g id="Attributes">
    <path class="cls-1" d="m12.37,22.22s-1.62-5.12,1.35-8.21c1.27-1.05,2.66-1.95,4.14-2.66,0-3.76,3.03-6.8,6.79-6.81,3.76,0,6.8,3.03,6.81,6.79,0,3.3-2.37,6.13-5.62,6.71-2.6,3.94-8.29,10.97-16.12,10.97C5.57,29.01,1.5,16.86,1.5,11.35v-6.62c0-1.71,1.34-3.11,3.04-3.2,2.46-.13,5.69,0,6.46,1.66,1.17,2.43-1.35,6.8-4.07,6.8,0,2.13,2.6,6.77,4.97,9.33"/>
  </g>
</svg>