<?xml version="1.0" encoding="UTF-8"?>
<svg id="Layer_2" data-name="Layer 2" xmlns="http://www.w3.org/2000/svg" viewBox="0 0 30.94 32.96">
  <defs>
    <style>
      .cls-1 {
        fill: none;
        stroke: #878787;
        stroke-linecap: round;
        stroke-width: 2.5px;
      }
    </style>
  </defs>
  <g id="Attributes">
    <path class="cls-1" d="m18.73,30.75c-1.12.48-1.68.71-3.26.71s-2.14-.24-3.26-.71c-4.13-1.76-10.71-5.89-10.71-14.41v-8.2c0-3.4,0-5.1,1.1-6.03,1.1-.93,2.78-.65,6.13-.09l1.64.27c2.55.42,3.82.64,5.1.64s2.56-.21,5.1-.64l1.64-.27c3.36-.56,5.03-.84,6.13.09,1.1.93,1.1,2.63,1.1,6.03v8.2c0,8.52-6.58,12.66-10.71,14.41Zm-5.59-19.07c-.45-.9-1.67-1.55-3.1-1.55s-2.65.65-3.1,1.55m17.07,0c-.45-.9-1.67-1.55-3.1-1.55s-2.65.65-3.1,1.55m-7.76,7.76s1.63,1.55,5.43,1.55,5.43-1.55,5.43-1.55"/>
  </g>
</svg>