<?xml version="1.0" encoding="UTF-8"?>
<svg id="Layer_2" data-name="Layer 2" xmlns="http://www.w3.org/2000/svg" xmlns:xlink="http://www.w3.org/1999/xlink" viewBox="0 0 86.59 86.59">
  <defs>
    <style>
      .Anon_bygjKTicgcM_, .cls-1 {
        stroke: rgba(255, 255, 255, .7);
        stroke-linecap: round;
        stroke-miterlimit: 10;
        stroke-width: 1.5px;
      }

      .cls-2 {
        opacity: .7;
      }

      .cls-3 {
        fill: #fff;
      }

      .cls-4 {
        fill: #577dbe;
      }

      .cls-1 {
        fill: none;
      }
    </style>
    <symbol id="Intelligence" viewBox="0 0 34.02 34.02">
      <g>
        <circle id="Background" class="cls-4" cx="17.01" cy="17.01" r="17.01"/>
        <g id="Background-2" data-name="Background">
          <g class="cls-2">
            <path class="cls-3" d="m17.01,2.92c7.77,0,14.09,6.32,14.09,14.09s-6.32,14.09-14.09,14.09S2.92,24.78,2.92,17.01,9.24,2.92,17.01,2.92m0-1.5C8.4,1.42,1.42,8.4,1.42,17.01s6.98,15.59,15.59,15.59,15.59-6.98,15.59-15.59S25.62,1.42,17.01,1.42h0Z"/>
          </g>
        </g>
        <path class="cls-1" d="m23.58,24.81h-11.31c-1.01,0-1.84-.83-1.84-1.84v-11.93c0-1.01.83-1.84,1.84-1.84h10.39c.51,0,.92.41.92.92m-4.11,11h-7.2c-1.01,0-1.84.83-1.84,1.84h0c0,1.02.83,1.85,1.84,1.85h11.31m-4.11-3.69h3.19c.51,0,.92-.41.92-.92v-10.08m-.92,11v3.69m-8.33-11.79h5.81m-5.81,2.61h4.33"/>
      </g>
    </symbol>
  </defs>
  <g id="Root">
    <g id="Roll_Cards" data-name="Roll Cards">
      <g id="Intelligence-2" data-name="Intelligence">
        <use width="34.02" height="34.02" transform="scale(2.55)" xlink:href="#Intelligence"/>
      </g>
    </g>
  </g>
</svg>