<?xml version="1.0" encoding="UTF-8"?>
<svg id="Layer_2" data-name="Layer 2" xmlns="http://www.w3.org/2000/svg" xmlns:xlink="http://www.w3.org/1999/xlink" viewBox="0 0 86.59 86.59">
  <defs>
    <style>
      .Anon_EiEl_howlJk_, .cls-1 {
        stroke: rgba(255, 255, 255, .7);
        stroke-linecap: round;
        stroke-miterlimit: 10;
        stroke-width: 1.5px;
      }

      .cls-2 {
        opacity: .7;
      }

      .cls-3 {
        fill: #fff;
      }

      .cls-4 {
        fill: #00984d;
      }

      .cls-1 {
        fill: none;
      }
    </style>
    <symbol id="Agility" viewBox="0 0 34.02 34.02">
      <g>
        <circle id="Background" class="cls-4" cx="17.01" cy="17.01" r="17.01"/>
        <g id="Background-2" data-name="Background">
          <g class="cls-2">
            <path class="cls-3" d="m17.01,2.92c7.77,0,14.09,6.32,14.09,14.09s-6.32,14.09-14.09,14.09S2.92,24.78,2.92,17.01,9.24,2.92,17.01,2.92m0-1.5C8.4,1.42,1.42,8.4,1.42,17.01s6.98,15.59,15.59,15.59,15.59-6.98,15.59-15.59S25.62,1.42,17.01,1.42h0Z"/>
          </g>
        </g>
        <path class="cls-1" d="m24.05,10.24c-.37.51-.67,1.09-1.02,1.61-.72,1.09-1.47,2.15-2.2,3.23-.61.92-1.31,1.78-1.3,2.93,0,.8.23,1.63.4,2.41.09.4.15.88.39,1.22.43.6,1.17.66,1.68,1.13.22.2.2.6.07.84-.16.29-.44.37-.75.4-.61.07-1.27.06-1.88,0-.38-.04-.8-.08-1.15-.25-1.46-.72-1.8-2.75-2.58-4.04-.37-.62-1.16-1-1.27-1.75-.03-.2-.04-.39-.01-.59.15-1.16,1.34-1.22,1.96-2.01.81-1.04,1.33-2.37,1.82-3.59.23-.59.55-1.22.65-1.84m-9.06,4.58h2.87m-5.52,2.8h3.92m-3.37,2.8h4.28"/>
      </g>
    </symbol>
  </defs>
  <g id="Root">
    <g id="Roll_Cards" data-name="Roll Cards">
      <g id="Agility-2" data-name="Agility">
        <use width="34.02" height="34.02" transform="scale(2.55)" xlink:href="#Agility"/>
      </g>
    </g>
  </g>
</svg>