<svg width="90" height="87" viewBox="0 0 90 87" fill="none" xmlns="http://www.w3.org/2000/svg">
<g clip-path="url(#clip0_2001_2)">
<g clip-path="url(#clip1_2001_2)">
<path d="M36.6424 2.6406L5.70497 25.1346C0.847571 28.6554 -1.17363 34.9146 0.684571 40.6196L12.4858 76.9686C14.344 82.6736 19.6578 86.553 25.6562 86.553H63.896C69.8944 86.553 75.2082 82.6736 77.0664 76.9686L88.8676 40.6196C90.7258 34.9146 88.7046 28.6554 83.8472 25.1346L52.9424 2.6406C48.085 -0.8802 41.4998 -0.8802 36.6424 2.6406Z" fill="#936754"/>
<g opacity="0.7">
<path d="M44.7923 9.32359C46.3897 9.32359 47.9219 9.81259 49.1933 10.758L77.4901 31.296C80.1307 33.2194 81.2065 36.5772 80.1959 39.6742L69.4053 72.9262C68.3947 76.0232 65.5259 78.1096 62.2659 78.1096H27.3187C24.0587 78.1096 21.1899 76.0232 20.1793 72.9262L9.38874 39.6742C8.37814 36.5772 9.48654 33.2194 12.0945 31.296L40.3913 10.758C41.6953 9.81259 43.1949 9.32359 44.7923 9.32359ZM44.7923 4.43359C42.2495 4.43359 39.6741 5.21599 37.5225 6.81339L9.22574 27.3514C4.88994 30.5136 3.06434 36.0882 4.72694 41.2064L15.5175 74.4584C17.1801 79.544 21.9397 82.9996 27.2861 82.9996H62.2333C67.6123 82.9996 72.3393 79.544 74.0019 74.4584L84.7925 41.2064C86.4551 36.1208 84.6295 30.5136 80.2937 27.3514L52.0621 6.81339C49.8779 5.24859 47.3351 4.43359 44.7923 4.43359Z" fill="white"/>
</g>
<path d="M32.604 55H25.38V35.96H32.604C34.5827 35.96 36.216 36.3707 37.504 37.192C38.792 37.9947 39.7533 39.1053 40.388 40.524C41.0413 41.924 41.368 43.5387 41.368 45.368C41.368 47.3467 41.0227 49.0547 40.332 50.492C39.66 51.9107 38.6707 53.012 37.364 53.796C36.076 54.5613 34.4893 54.9627 32.604 55ZM32.744 39.04H28.992V51.948H32.52C33.5653 51.948 34.4613 51.7333 35.208 51.304C35.9733 50.856 36.5613 50.1467 36.972 49.176C37.3827 48.2053 37.588 46.936 37.588 45.368C37.588 44.0427 37.42 42.9133 37.084 41.98C36.748 41.028 36.216 40.3 35.488 39.796C34.7787 39.292 33.864 39.04 32.744 39.04ZM50.8154 55H47.2034V43.184L44.0114 44.416L42.6394 41.7L48.4074 39.152H50.8154V55ZM59.1633 38.788C60.358 38.788 61.3846 39.0027 62.2433 39.432C63.102 39.8613 63.7553 40.4493 64.2033 41.196C64.67 41.9427 64.9033 42.7827 64.9033 43.716C64.9033 44.5747 64.7633 45.34 64.4833 46.012C64.2033 46.6653 63.7833 47.3093 63.2233 47.944C62.6633 48.56 61.926 49.2507 61.0113 50.016L58.3513 52.256L65.4353 52.228L65.7713 55H53.3953V52.564L59.0513 47.748C59.6673 47.2067 60.1806 46.712 60.5913 46.264C61.0206 45.816 61.338 45.396 61.5433 45.004C61.7486 44.5933 61.8513 44.22 61.8513 43.884C61.8513 43.1747 61.5713 42.6427 61.0113 42.288C60.4513 41.9147 59.7046 41.728 58.7713 41.728C58.2113 41.728 57.6513 41.812 57.0913 41.98C56.55 42.1293 56.046 42.316 55.5793 42.54C55.1126 42.764 54.7113 42.9693 54.3753 43.156L53.7593 40.244C54.282 39.9267 55.0006 39.6093 55.9153 39.292C56.83 38.956 57.9126 38.788 59.1633 38.788Z" fill="white"/>
</g>
</g>
<defs>
<clipPath id="clip0_2001_2">
<rect width="89.67" height="86.64" fill="white"/>
</clipPath>
<clipPath id="clip1_2001_2">
<rect width="89.5848" height="86.553" fill="white"/>
</clipPath>
</defs>
</svg>
