<svg width="90" height="87" viewBox="0 0 90 87" fill="none" xmlns="http://www.w3.org/2000/svg">
<g clip-path="url(#clip0_2001_2)">
<g clip-path="url(#clip1_2001_2)">
<path d="M36.6424 2.6406L5.70497 25.1346C0.847571 28.6554 -1.17363 34.9146 0.684571 40.6196L12.4858 76.9686C14.344 82.6736 19.6578 86.553 25.6562 86.553H63.896C69.8944 86.553 75.2082 82.6736 77.0664 76.9686L88.8676 40.6196C90.7258 34.9146 88.7046 28.6554 83.8472 25.1346L52.9424 2.6406C48.085 -0.8802 41.4998 -0.8802 36.6424 2.6406Z" fill="#936754"/>
<g opacity="0.7">
<path d="M44.7923 9.32359C46.3897 9.32359 47.9219 9.81259 49.1933 10.758L77.4901 31.296C80.1307 33.2194 81.2065 36.5772 80.1959 39.6742L69.4053 72.9262C68.3947 76.0232 65.5259 78.1096 62.2659 78.1096H27.3187C24.0587 78.1096 21.1899 76.0232 20.1793 72.9262L9.38874 39.6742C8.37814 36.5772 9.48654 33.2194 12.0945 31.296L40.3913 10.758C41.6953 9.81259 43.1949 9.32359 44.7923 9.32359ZM44.7923 4.43359C42.2495 4.43359 39.6741 5.21599 37.5225 6.81339L9.22574 27.3514C4.88994 30.5136 3.06434 36.0882 4.72694 41.2064L15.5175 74.4584C17.1801 79.544 21.9397 82.9996 27.2861 82.9996H62.2333C67.6123 82.9996 72.3393 79.544 74.0019 74.4584L84.7925 41.2064C86.4551 36.1208 84.6295 30.5136 80.2937 27.3514L52.0621 6.81339C49.8779 5.24859 47.3351 4.43359 44.7923 4.43359Z" fill="white"/>
</g>
<path d="M24.0391 37.9492H31.5859C34.5391 37.9492 36.8359 38.6419 38.4766 40.0273C40.1354 41.3945 40.9648 43.3086 40.9648 45.7695C40.9648 47.3555 40.5729 48.7773 39.7891 50.0352C39.0052 51.2747 37.9297 52.25 36.5625 52.9609C35.1953 53.6536 33.6276 54 31.8594 54H24.0391L23.957 52.6328L25.707 52.1953C25.7617 52.0677 25.8073 51.612 25.8438 50.8281C25.8802 50.026 25.8984 49.0781 25.8984 47.9844V43.9648C25.8984 42.8346 25.8802 41.8776 25.8438 41.0938C25.8073 40.2917 25.7617 39.8359 25.707 39.7266L23.957 39.3164L24.0391 37.9492ZM29.6445 39.7539C29.6445 39.8815 29.6354 40.1276 29.6172 40.4922C29.6172 40.8385 29.6081 41.3034 29.5898 41.8867C29.5898 42.4518 29.5898 43.1445 29.5898 43.9648V47.9844C29.5898 48.4583 29.5898 48.9596 29.5898 49.4883C29.6081 49.9987 29.6263 50.4727 29.6445 50.9102C29.681 51.3477 29.7083 51.694 29.7266 51.9492C30.1276 52.0221 30.5378 52.0859 30.957 52.1406C31.3763 52.1771 31.7682 52.1953 32.1328 52.1953C33.6823 52.1953 34.849 51.7487 35.6328 50.8555C36.4349 49.9622 36.8359 48.5495 36.8359 46.6172C36.8359 45.3411 36.6901 44.2565 36.3984 43.3633C36.1068 42.4701 35.7057 41.75 35.1953 41.2031C34.6849 40.6562 34.1016 40.2552 33.4453 40C32.7891 39.7448 32.0872 39.6172 31.3398 39.6172C31.0664 39.6172 30.7839 39.6354 30.4922 39.6719C30.2188 39.6901 29.9362 39.7174 29.6445 39.7539ZM49.7695 47.9844C49.7695 48.6771 49.7786 49.3242 49.7969 49.9258C49.8151 50.5273 49.8333 51.0378 49.8516 51.457C49.888 51.8581 49.9245 52.1042 49.9609 52.1953L52.2852 52.6328L52.2031 54H43.6992L43.6172 52.6328L45.9414 52.1953C45.9596 52.0859 45.9779 51.8307 45.9961 51.4297C46.0143 51.0104 46.0326 50.5 46.0508 49.8984C46.069 49.2786 46.0781 48.6406 46.0781 47.9844V44.8945C46.0781 44.1836 46.0599 43.4818 46.0234 42.7891C46.0052 42.0964 45.9779 41.6042 45.9414 41.3125L43.3711 41.832L43.2617 40.1914L49.9883 37.5938C49.9336 38.3776 49.8789 39.3346 49.8242 40.4648C49.7878 41.5951 49.7695 42.862 49.7695 44.2656V47.9844ZM54.1719 54.082L54.0898 52.6055C55.6576 51.3477 56.9245 50.1901 57.8906 49.1328C58.875 48.0755 59.5859 47.082 60.0234 46.1523C60.4792 45.2044 60.707 44.2747 60.707 43.3633C60.707 42.5065 60.4518 41.8138 59.9414 41.2852C59.4492 40.7565 58.7747 40.4922 57.918 40.4922C56.5508 40.4922 55.4661 41.1667 54.6641 42.5156L53.4609 41.6406C53.9896 40.3828 54.7552 39.4167 55.7578 38.7422C56.7786 38.0495 57.9453 37.7031 59.2578 37.7031C60.2786 37.7031 61.1901 37.9128 61.9922 38.332C62.7943 38.7513 63.4232 39.3346 63.8789 40.082C64.3346 40.8294 64.5625 41.7044 64.5625 42.707C64.5625 44.1836 63.9427 45.6784 62.7031 47.1914C61.4818 48.6862 59.75 50.1081 57.5078 51.457V51.1562H62.2656C62.612 51.1562 62.8854 51.1471 63.0859 51.1289C63.2865 51.1107 63.5234 51.0742 63.7969 51.0195L64.6172 49.0508L66.3125 49.2695L65.4102 54.1367C65.1003 54.1003 64.6992 54.0729 64.207 54.0547C63.7148 54.0365 63.2409 54.0182 62.7852 54C62.3294 54 61.9648 54 61.6914 54H56.2773C55.9492 54 55.6029 54 55.2383 54C54.8737 54.0182 54.5182 54.0456 54.1719 54.082Z" fill="white"/>
</g>
</g>
<defs>
<clipPath id="clip0_2001_2">
<rect width="89.67" height="86.64" fill="white"/>
</clipPath>
<clipPath id="clip1_2001_2">
<rect width="89.5848" height="86.553" fill="white"/>
</clipPath>
</defs>
</svg>
